<svg xmlns="http://www.w3.org/2000/svg" xmlns:xlink="http://www.w3.org/1999/xlink" width="100" zoomAndPan="magnify" viewBox="0 0 75 74.999997" height="100" preserveAspectRatio="xMidYMid meet" version="1.2"><defs><clipPath id="30163f593f"><path d="M 37.5 0 C 16.789062 0 0 16.789062 0 37.5 C 0 58.210938 16.789062 75 37.5 75 C 58.210938 75 75 58.210938 75 37.5 C 75 16.789062 58.210938 0 37.5 0 Z M 37.5 0 "/></clipPath><clipPath id="fdf44cea3f"><path d="M 34 19.105469 L 37 19.105469 L 37 29 L 34 29 Z M 34 19.105469 "/></clipPath><clipPath id="43ce6251ab"><path d="M 20 19.105469 L 23 19.105469 L 23 29 L 20 29 Z M 20 19.105469 "/></clipPath><clipPath id="099a1051ee"><path d="M 5.4375 23 L 69.1875 23 L 69.1875 55.855469 L 5.4375 55.855469 Z M 5.4375 23 "/></clipPath></defs><g id="d258c7b8b9"><g clip-rule="nonzero" clip-path="url(#30163f593f)"><rect x="0" width="75" y="0" height="74.999997" style="fill:#efeae4;fill-opacity:1;stroke:none;"/></g><path style=" stroke:none;fill-rule:nonzero;fill:#6e615c;fill-opacity:1;" d="M 16.921875 30.953125 L 13.347656 30.953125 L 13.347656 48.3125 L 24.515625 48.3125 L 24.515625 45.4375 L 16.921875 45.4375 Z M 16.921875 30.953125 "/><path style=" stroke:none;fill-rule:nonzero;fill:#6e615c;fill-opacity:1;" d="M 26.792969 30.953125 L 30.371094 30.953125 L 30.371094 48.3125 L 26.792969 48.3125 Z M 26.792969 30.953125 "/><path style=" stroke:none;fill-rule:nonzero;fill:#6e615c;fill-opacity:1;" d="M 40.097656 44.007812 L 36.1875 30.953125 L 32.21875 30.953125 L 38.238281 48.3125 L 41.96875 48.3125 L 48.011719 30.953125 L 44.03125 30.953125 Z M 40.097656 44.007812 "/><path style=" stroke:none;fill-rule:nonzero;fill:#6e615c;fill-opacity:1;" d="M 53.222656 45.4375 L 53.222656 40.789062 L 60.089844 40.789062 L 60.089844 37.988281 L 53.222656 37.988281 L 53.222656 33.851562 L 61.257812 33.851562 L 61.257812 30.953125 L 49.648438 30.953125 L 49.648438 48.3125 L 61.28125 48.3125 L 61.28125 45.4375 Z M 53.222656 45.4375 "/><path style=" stroke:none;fill-rule:nonzero;fill:#6e615c;fill-opacity:1;" d="M 30.371094 24.003906 C 30.371094 24.242188 30.324219 24.46875 30.234375 24.6875 C 30.144531 24.90625 30.015625 25.101562 29.847656 25.269531 C 29.679688 25.4375 29.484375 25.566406 29.265625 25.65625 C 29.046875 25.746094 28.820312 25.792969 28.582031 25.792969 C 28.34375 25.792969 28.117188 25.746094 27.898438 25.65625 C 27.679688 25.566406 27.484375 25.4375 27.316406 25.269531 C 27.148438 25.101562 27.019531 24.90625 26.929688 24.6875 C 26.839844 24.46875 26.792969 24.242188 26.792969 24.003906 C 26.792969 23.765625 26.839844 23.539062 26.929688 23.320312 C 27.019531 23.101562 27.148438 22.90625 27.316406 22.738281 C 27.484375 22.574219 27.679688 22.441406 27.898438 22.351562 C 28.117188 22.261719 28.34375 22.214844 28.582031 22.214844 C 28.820312 22.214844 29.046875 22.261719 29.265625 22.351562 C 29.484375 22.441406 29.679688 22.574219 29.847656 22.738281 C 30.015625 22.90625 30.144531 23.101562 30.234375 23.320312 C 30.324219 23.539062 30.371094 23.765625 30.371094 24.003906 Z M 30.371094 24.003906 "/><g clip-rule="nonzero" clip-path="url(#fdf44cea3f)"><path style=" stroke:none;fill-rule:nonzero;fill:#6e615c;fill-opacity:1;" d="M 35.246094 28.898438 C 35.769531 28.191406 36.167969 27.417969 36.441406 26.582031 C 36.714844 25.742188 36.851562 24.886719 36.851562 24.003906 C 36.851562 23.125 36.714844 22.265625 36.441406 21.429688 C 36.167969 20.589844 35.769531 19.816406 35.246094 19.109375 L 34.417969 19.71875 C 34.875 20.339844 35.222656 21.015625 35.464844 21.75 C 35.703125 22.480469 35.824219 23.234375 35.824219 24.003906 C 35.824219 24.773438 35.703125 25.527344 35.464844 26.257812 C 35.222656 26.992188 34.875 27.667969 34.417969 28.289062 Z M 35.246094 28.898438 "/></g><g clip-rule="nonzero" clip-path="url(#43ce6251ab)"><path style=" stroke:none;fill-rule:nonzero;fill:#6e615c;fill-opacity:1;" d="M 22.746094 28.289062 C 22.289062 27.667969 21.941406 26.992188 21.699219 26.257812 C 21.460938 25.527344 21.339844 24.777344 21.339844 24.003906 C 21.339844 23.234375 21.460938 22.480469 21.699219 21.75 C 21.941406 21.015625 22.289062 20.339844 22.746094 19.71875 L 21.917969 19.109375 C 21.394531 19.820312 20.996094 20.589844 20.722656 21.429688 C 20.449219 22.265625 20.3125 23.125 20.3125 24.003906 C 20.3125 24.886719 20.449219 25.742188 20.722656 26.582031 C 20.996094 27.417969 21.394531 28.191406 21.917969 28.898438 Z M 22.746094 28.289062 "/></g><path style=" stroke:none;fill-rule:nonzero;fill:#6e615c;fill-opacity:1;" d="M 32.484375 27.019531 C 32.820312 26.585938 33.074219 26.113281 33.25 25.597656 C 33.425781 25.082031 33.515625 24.550781 33.515625 24.003906 C 33.515625 23.460938 33.425781 22.929688 33.25 22.414062 C 33.074219 21.894531 32.820312 21.421875 32.484375 20.992188 L 31.671875 21.621094 C 31.933594 21.960938 32.136719 22.335938 32.277344 22.746094 C 32.414062 23.152344 32.484375 23.574219 32.484375 24.003906 C 32.484375 24.4375 32.414062 24.855469 32.277344 25.265625 C 32.136719 25.671875 31.933594 26.046875 31.671875 26.390625 Z M 32.484375 27.019531 "/><path style=" stroke:none;fill-rule:nonzero;fill:#6e615c;fill-opacity:1;" d="M 24.679688 20.992188 C 24.34375 21.421875 24.089844 21.898438 23.914062 22.414062 C 23.738281 22.929688 23.648438 23.460938 23.648438 24.003906 C 23.648438 24.550781 23.738281 25.082031 23.914062 25.597656 C 24.089844 26.113281 24.34375 26.585938 24.679688 27.019531 L 25.492188 26.390625 C 25.230469 26.046875 25.027344 25.671875 24.886719 25.265625 C 24.75 24.855469 24.679688 24.4375 24.679688 24.003906 C 24.679688 23.574219 24.75 23.152344 24.886719 22.746094 C 25.027344 22.335938 25.230469 21.960938 25.492188 21.621094 Z M 24.679688 20.992188 "/><g clip-rule="nonzero" clip-path="url(#099a1051ee)"><path style=" stroke:none;fill-rule:nonzero;fill:#6e615c;fill-opacity:1;" d="M 63.523438 55.6875 L 11.105469 55.6875 C 10.738281 55.6875 10.375 55.652344 10.011719 55.578125 C 9.652344 55.507812 9.300781 55.398438 8.960938 55.257812 C 8.625 55.117188 8.300781 54.945312 7.996094 54.742188 C 7.6875 54.539062 7.40625 54.304688 7.148438 54.046875 C 6.886719 53.785156 6.65625 53.503906 6.449219 53.195312 C 6.246094 52.890625 6.074219 52.570312 5.933594 52.230469 C 5.792969 51.890625 5.683594 51.539062 5.613281 51.179688 C 5.542969 50.820312 5.503906 50.453125 5.503906 50.085938 L 5.503906 29.5625 C 5.503906 29.195312 5.542969 28.832031 5.613281 28.472656 C 5.683594 28.109375 5.792969 27.761719 5.933594 27.421875 C 6.074219 27.082031 6.246094 26.761719 6.449219 26.453125 C 6.65625 26.148438 6.886719 25.867188 7.148438 25.605469 C 7.40625 25.347656 7.691406 25.113281 7.996094 24.910156 C 8.300781 24.707031 8.625 24.53125 8.960938 24.390625 C 9.300781 24.25 9.652344 24.144531 10.011719 24.074219 C 10.375 24 10.738281 23.964844 11.105469 23.964844 L 18.179688 23.964844 L 18.179688 25.164062 L 11.105469 25.164062 C 10.816406 25.164062 10.53125 25.191406 10.246094 25.25 C 9.964844 25.304688 9.6875 25.390625 9.421875 25.5 C 9.15625 25.609375 8.902344 25.746094 8.660156 25.90625 C 8.421875 26.066406 8.199219 26.25 7.996094 26.453125 C 7.789062 26.660156 7.609375 26.878906 7.449219 27.121094 C 7.289062 27.359375 7.152344 27.613281 7.042969 27.878906 C 6.929688 28.148438 6.847656 28.421875 6.789062 28.707031 C 6.734375 28.988281 6.707031 29.273438 6.703125 29.5625 L 6.703125 50.085938 C 6.707031 50.375 6.734375 50.664062 6.789062 50.945312 C 6.847656 51.230469 6.929688 51.503906 7.042969 51.769531 C 7.152344 52.039062 7.289062 52.289062 7.449219 52.53125 C 7.609375 52.769531 7.789062 52.992188 7.996094 53.195312 C 8.199219 53.402344 8.421875 53.582031 8.660156 53.742188 C 8.902344 53.90625 9.15625 54.039062 9.421875 54.152344 C 9.6875 54.261719 9.964844 54.34375 10.246094 54.402344 C 10.53125 54.457031 10.816406 54.488281 11.105469 54.488281 L 63.523438 54.488281 C 63.8125 54.488281 64.097656 54.457031 64.382812 54.402344 C 64.664062 54.34375 64.941406 54.261719 65.207031 54.152344 C 65.472656 54.039062 65.726562 53.90625 65.964844 53.742188 C 66.207031 53.582031 66.429688 53.402344 66.632812 53.195312 C 66.835938 52.992188 67.019531 52.769531 67.179688 52.53125 C 67.339844 52.289062 67.476562 52.039062 67.585938 51.769531 C 67.699219 51.503906 67.78125 51.230469 67.839844 50.945312 C 67.894531 50.664062 67.921875 50.375 67.921875 50.085938 L 67.921875 29.5625 C 67.921875 29.273438 67.894531 28.988281 67.839844 28.707031 C 67.78125 28.421875 67.699219 28.148438 67.585938 27.878906 C 67.476562 27.613281 67.339844 27.359375 67.179688 27.121094 C 67.019531 26.878906 66.835938 26.660156 66.632812 26.453125 C 66.429688 26.25 66.207031 26.066406 65.964844 25.90625 C 65.726562 25.746094 65.472656 25.609375 65.207031 25.5 C 64.941406 25.390625 64.664062 25.304688 64.382812 25.25 C 64.097656 25.191406 63.8125 25.164062 63.523438 25.164062 L 38.984375 25.164062 L 38.984375 23.964844 L 63.523438 23.964844 C 63.890625 23.964844 64.253906 24 64.617188 24.074219 C 64.976562 24.144531 65.324219 24.25 65.664062 24.390625 C 66.003906 24.53125 66.328125 24.707031 66.632812 24.910156 C 66.9375 25.113281 67.222656 25.347656 67.480469 25.605469 C 67.742188 25.867188 67.972656 26.148438 68.175781 26.453125 C 68.382812 26.761719 68.554688 27.082031 68.695312 27.421875 C 68.835938 27.761719 68.941406 28.109375 69.015625 28.472656 C 69.085938 28.832031 69.125 29.195312 69.125 29.5625 L 69.125 50.085938 C 69.125 50.453125 69.085938 50.820312 69.015625 51.179688 C 68.941406 51.539062 68.835938 51.890625 68.695312 52.230469 C 68.554688 52.570312 68.382812 52.890625 68.179688 53.195312 C 67.972656 53.503906 67.742188 53.785156 67.480469 54.046875 C 67.222656 54.304688 66.9375 54.539062 66.632812 54.742188 C 66.328125 54.945312 66.003906 55.117188 65.664062 55.257812 C 65.324219 55.398438 64.976562 55.507812 64.617188 55.578125 C 64.253906 55.652344 63.890625 55.6875 63.523438 55.6875 Z M 63.523438 55.6875 "/></g></g></svg>