<svg xmlns="http://www.w3.org/2000/svg" xmlns:xlink="http://www.w3.org/1999/xlink" width="100" zoomAndPan="magnify" viewBox="0 0 75 74.999997" height="100" preserveAspectRatio="xMidYMid meet" version="1.2"><defs><clipPath id="c75cc72400"><path d="M 37.5 0 C 16.789062 0 0 16.789062 0 37.5 C 0 58.210938 16.789062 75 37.5 75 C 58.210938 75 75 58.210938 75 37.5 C 75 16.789062 58.210938 0 37.5 0 Z M 37.5 0 "/></clipPath><clipPath id="5714cb3c01"><path d="M 55.871094 19.144531 L 66.265625 19.144531 L 66.265625 55.722656 L 55.871094 55.722656 Z M 55.871094 19.144531 "/></clipPath><clipPath id="b993b0a413"><path d="M 8.515625 19.144531 L 18.910156 19.144531 L 18.910156 55.722656 L 8.515625 55.722656 Z M 8.515625 19.144531 "/></clipPath></defs><g id="297bc7225a"><g clip-rule="nonzero" clip-path="url(#c75cc72400)"><rect x="0" width="75" y="0" height="74.999997" style="fill:#efeae4;fill-opacity:1;stroke:none;"/></g><path style=" stroke:none;fill-rule:nonzero;fill:#6e615c;fill-opacity:1;" d="M 58.4375 37.433594 C 58.4375 35.136719 58.003906 32.898438 57.140625 30.78125 C 56.25 28.585938 54.945312 26.617188 53.257812 24.929688 C 52.566406 24.238281 51.445312 24.238281 50.753906 24.929688 C 50.0625 25.621094 50.0625 26.742188 50.753906 27.429688 C 52.105469 28.785156 53.152344 30.359375 53.867188 32.109375 C 54.550781 33.804688 54.902344 35.597656 54.902344 37.433594 C 54.902344 39.269531 54.550781 41.0625 53.867188 42.753906 C 53.152344 44.507812 52.105469 46.082031 50.753906 47.433594 C 50.0625 48.125 50.0625 49.246094 50.753906 49.9375 C 51.101562 50.28125 51.550781 50.453125 52.003906 50.453125 C 52.457031 50.453125 52.910156 50.28125 53.257812 49.9375 C 54.945312 48.246094 56.253906 46.28125 57.140625 44.085938 C 58.003906 41.964844 58.4375 39.726562 58.4375 37.433594 "/><g clip-rule="nonzero" clip-path="url(#5714cb3c01)"><path style=" stroke:none;fill-rule:nonzero;fill:#6e615c;fill-opacity:1;" d="M 64.421875 27.976562 C 63.15625 24.859375 61.296875 22.0625 58.898438 19.660156 C 58.207031 18.972656 57.085938 18.972656 56.398438 19.660156 C 55.707031 20.351562 55.707031 21.472656 56.398438 22.164062 C 58.460938 24.226562 60.058594 26.632812 61.144531 29.308594 C 62.195312 31.894531 62.726562 34.628906 62.726562 37.433594 C 62.726562 40.238281 62.195312 42.96875 61.144531 45.558594 C 60.058594 48.234375 58.460938 50.640625 56.398438 52.703125 C 55.707031 53.394531 55.707031 54.515625 56.398438 55.203125 C 56.742188 55.550781 57.195312 55.722656 57.648438 55.722656 C 58.101562 55.722656 58.554688 55.550781 58.898438 55.203125 C 61.296875 52.804688 63.15625 50.003906 64.421875 46.886719 C 65.644531 43.875 66.265625 40.695312 66.265625 37.433594 C 66.265625 34.171875 65.644531 30.988281 64.421875 27.976562 "/></g><path style=" stroke:none;fill-rule:nonzero;fill:#6e615c;fill-opacity:1;" d="M 16.34375 37.433594 C 16.34375 39.726562 16.777344 41.964844 17.636719 44.085938 C 18.527344 46.28125 19.835938 48.246094 21.523438 49.9375 C 22.214844 50.628906 23.335938 50.628906 24.027344 49.9375 C 24.714844 49.246094 24.714844 48.125 24.027344 47.433594 C 22.671875 46.082031 21.625 44.507812 20.914062 42.753906 C 20.226562 41.0625 19.878906 39.269531 19.878906 37.433594 C 19.878906 35.597656 20.226562 33.804688 20.914062 32.113281 C 21.625 30.359375 22.671875 28.785156 24.027344 27.429688 C 24.714844 26.742188 24.714844 25.621094 24.027344 24.929688 C 23.679688 24.585938 23.226562 24.414062 22.773438 24.414062 C 22.320312 24.414062 21.871094 24.585938 21.523438 24.929688 C 19.835938 26.617188 18.527344 28.585938 17.636719 30.78125 C 16.777344 32.898438 16.34375 35.136719 16.34375 37.433594 "/><g clip-rule="nonzero" clip-path="url(#b993b0a413)"><path style=" stroke:none;fill-rule:nonzero;fill:#6e615c;fill-opacity:1;" d="M 10.359375 46.886719 C 11.621094 50.003906 13.480469 52.804688 15.882812 55.203125 C 16.574219 55.894531 17.691406 55.894531 18.382812 55.203125 C 19.074219 54.515625 19.074219 53.394531 18.382812 52.703125 C 16.316406 50.640625 14.722656 48.234375 13.636719 45.558594 C 12.585938 42.972656 12.050781 40.238281 12.050781 37.433594 C 12.050781 34.628906 12.585938 31.894531 13.636719 29.308594 C 14.722656 26.632812 16.316406 24.226562 18.382812 22.164062 C 19.074219 21.472656 19.074219 20.351562 18.382812 19.660156 C 18.039062 19.316406 17.585938 19.144531 17.132812 19.144531 C 16.679688 19.144531 16.226562 19.316406 15.882812 19.660156 C 13.480469 22.0625 11.621094 24.859375 10.355469 27.976562 C 9.136719 30.988281 8.515625 34.171875 8.515625 37.433594 C 8.515625 40.695312 9.136719 43.875 10.359375 46.886719 "/></g><path style=" stroke:none;fill-rule:nonzero;fill:#6e615c;fill-opacity:1;" d="M 46.214844 37.433594 C 46.214844 42.273438 42.292969 46.195312 37.453125 46.195312 C 32.617188 46.195312 28.695312 42.273438 28.695312 37.433594 C 28.695312 32.59375 32.617188 28.671875 37.453125 28.671875 C 42.292969 28.671875 46.214844 32.59375 46.214844 37.433594 "/></g></svg>